<svg width="171" height="19" viewBox="0 0 171 19" fill="none" xmlns="http://www.w3.org/2000/svg">
<path fill-rule="evenodd" clip-rule="evenodd" d="M23.8567 7.05715L23.8567 7.05714L19.5143 2.71474L15.1719 7.05714L23.8567 7.05715ZM19.5143 13.5714L20.6002 12.4855L24.9426 8.14308L26.0286 7.05714L24.9426 5.9712L20.6002 1.6288L19.5143 0.542854L18.4283 1.6288L14.0859 5.9712L13 7.05714L14.0859 8.14308L18.4283 12.4855L19.5143 13.5714Z" fill="#F3AA96"/>
<path fill-rule="evenodd" clip-rule="evenodd" d="M6.51422 2.71474L6.51423 2.71474L10.8566 7.05714L6.51423 11.3995L6.51422 2.71474ZM-6.10352e-05 7.05714L1.08588 5.9712L5.42828 1.6288L6.51423 0.542854L7.60017 1.6288L11.9426 5.9712L13.0285 7.05714L11.9426 8.14308L7.60017 12.4855L6.51423 13.5714L5.42828 12.4855L1.08588 8.14308L-6.10352e-05 7.05714Z" fill="#F3AA96"/>
<path d="M47.854 0.345999H41.5514V13H47.854C52.1697 13 55.3943 10.5897 55.3943 6.68114C55.3943 2.75629 52.1697 0.345999 47.854 0.345999ZM44.4503 2.12114H46.828C50.5248 2.12114 52.3814 3.78228 52.3814 6.68114C52.3814 9.58 50.5248 11.2086 46.828 11.2086H44.4503V2.12114ZM70.3934 13H73.5203L67.5434 0.345999H62.5111L56.5343 13H59.6448L61.3874 9.17286H68.6508L70.3934 13ZM64.612 2.12114H65.4426L67.8366 7.38143H62.2017L64.612 2.12114ZM88.6249 0.345999H85.726V10.2314L79.114 0.345999H75.1566V13H78.0555V3.11457L84.6675 13H88.6249V0.345999ZM91.5536 0.345999V13H94.4525V7.57686H97.5142C101.846 7.57686 103.801 6.37171 103.801 3.96143C103.801 1.55114 101.846 0.345999 97.5142 0.345999H91.5536ZM94.4525 5.80171V2.12114H97.6771C99.5336 2.12114 100.788 2.65857 100.788 3.96143C100.788 5.26428 99.5336 5.80171 97.6771 5.80171H94.4525ZM105.597 13H116.069V11.2086H108.496V0.345999H105.597V13ZM117.7 0.345999V13H120.599V0.345999H117.7ZM123.537 13H134.692V11.2086H126.435V7.57686H133.731V5.80171H126.435V2.12114H134.204V0.345999H123.537V13ZM151.49 4.66171C151.49 4.66171 151.001 0.117999 144.064 0.117999C139.308 0.117999 136.328 2.87028 136.328 6.68114C136.328 10.4757 139.471 13.2117 143.591 13.2117C147.337 13.2117 148.379 11.1271 148.379 11.1271V13H151.099V6.274H143.217V8.04914H148.379C148.379 8.04914 148.037 11.2086 144.047 11.2086C141.1 11.2086 139.341 9.27057 139.341 6.68114C139.341 4.18943 140.839 2.12114 144.047 2.12114C148.461 2.12114 148.51 5.476 148.51 5.476L151.49 4.66171ZM153.775 6.66486C153.775 10.4757 156.95 13.2117 161.836 13.2117C166.722 13.2117 169.897 10.4757 169.897 6.66486C169.897 2.854 166.722 0.117999 161.836 0.117999C156.95 0.117999 153.775 2.854 153.775 6.66486ZM156.787 6.66486C156.787 4.17314 158.318 2.12114 161.836 2.12114C165.354 2.12114 166.885 4.17314 166.885 6.66486C166.885 9.15657 165.354 11.2086 161.836 11.2086C158.318 11.2086 156.787 9.15657 156.787 6.66486Z" fill="#F3AA96"/>
</svg>
